<svg id="visual" viewBox="0 0 900 450" width="900" height="450" xmlns="http://www.w3.org/2000/svg" xmlns:xlink="http://www.w3.org/1999/xlink" version="1.1"><path d="M0 273L13.7 274.7C27.3 276.3 54.7 279.7 82 281.2C109.3 282.7 136.7 282.3 163.8 280C191 277.7 218 273.3 245.2 278.3C272.3 283.3 299.7 297.7 327 307C354.3 316.3 381.7 320.7 409 323.3C436.3 326 463.7 327 491 327.7C518.3 328.3 545.7 328.7 573 320.7C600.3 312.7 627.7 296.3 654.8 293.3C682 290.3 709 300.7 736.2 300.7C763.3 300.7 790.7 290.3 818 284.2C845.3 278 872.7 276 886.3 275L900 274L900 451L886.3 451C872.7 451 845.3 451 818 451C790.7 451 763.3 451 736.2 451C709 451 682 451 654.8 451C627.7 451 600.3 451 573 451C545.7 451 518.3 451 491 451C463.7 451 436.3 451 409 451C381.7 451 354.3 451 327 451C299.7 451 272.3 451 245.2 451C218 451 191 451 163.8 451C136.7 451 109.3 451 82 451C54.7 451 27.3 451 13.7 451L0 451Z" fill="#0066ff"></path><path d="M0 321L13.7 320.8C27.3 320.7 54.7 320.3 82 326.5C109.3 332.7 136.7 345.3 163.8 345.2C191 345 218 332 245.2 326.8C272.3 321.7 299.7 324.3 327 323.5C354.3 322.7 381.7 318.3 409 321.8C436.3 325.3 463.7 336.7 491 339.3C518.3 342 545.7 336 573 333.2C600.3 330.3 627.7 330.7 654.8 335C682 339.3 709 347.7 736.2 351.7C763.3 355.7 790.7 355.3 818 352.7C845.3 350 872.7 345 886.3 342.5L900 340L900 451L886.3 451C872.7 451 845.3 451 818 451C790.7 451 763.3 451 736.2 451C709 451 682 451 654.8 451C627.7 451 600.3 451 573 451C545.7 451 518.3 451 491 451C463.7 451 436.3 451 409 451C381.7 451 354.3 451 327 451C299.7 451 272.3 451 245.2 451C218 451 191 451 163.8 451C136.7 451 109.3 451 82 451C54.7 451 27.3 451 13.7 451L0 451Z" fill="#8c4ddc"></path><path d="M0 343L13.7 347.3C27.3 351.7 54.7 360.3 82 359.3C109.3 358.3 136.7 347.7 163.8 345.2C191 342.7 218 348.3 245.2 347.3C272.3 346.3 299.7 338.7 327 342C354.3 345.3 381.7 359.7 409 368.2C436.3 376.7 463.7 379.3 491 377.5C518.3 375.7 545.7 369.3 573 366C600.3 362.7 627.7 362.3 654.8 364C682 365.7 709 369.3 736.2 368.8C763.3 368.3 790.7 363.7 818 357.2C845.3 350.7 872.7 342.3 886.3 338.2L900 334L900 451L886.3 451C872.7 451 845.3 451 818 451C790.7 451 763.3 451 736.2 451C709 451 682 451 654.8 451C627.7 451 600.3 451 573 451C545.7 451 518.3 451 491 451C463.7 451 436.3 451 409 451C381.7 451 354.3 451 327 451C299.7 451 272.3 451 245.2 451C218 451 191 451 163.8 451C136.7 451 109.3 451 82 451C54.7 451 27.3 451 13.7 451L0 451Z" fill="#b434b4"></path><path d="M0 394L13.7 391.2C27.3 388.3 54.7 382.7 82 379.7C109.3 376.7 136.7 376.3 163.8 375.8C191 375.3 218 374.7 245.2 377.7C272.3 380.7 299.7 387.3 327 390C354.3 392.7 381.7 391.3 409 387.8C436.3 384.3 463.7 378.7 491 377C518.3 375.3 545.7 377.7 573 382C600.3 386.3 627.7 392.7 654.8 390C682 387.3 709 375.7 736.2 374.7C763.3 373.7 790.7 383.3 818 383.8C845.3 384.3 872.7 375.7 886.3 371.3L900 367L900 451L886.3 451C872.7 451 845.3 451 818 451C790.7 451 763.3 451 736.2 451C709 451 682 451 654.8 451C627.7 451 600.3 451 573 451C545.7 451 518.3 451 491 451C463.7 451 436.3 451 409 451C381.7 451 354.3 451 327 451C299.7 451 272.3 451 245.2 451C218 451 191 451 163.8 451C136.7 451 109.3 451 82 451C54.7 451 27.3 451 13.7 451L0 451Z" fill="#c5218c"></path><path d="M0 411L13.7 409.8C27.3 408.7 54.7 406.3 82 407.5C109.3 408.7 136.7 413.3 163.8 411.8C191 410.3 218 402.7 245.2 400.2C272.3 397.7 299.7 400.3 327 401C354.3 401.7 381.7 400.3 409 404.3C436.3 408.3 463.7 417.7 491 416.7C518.3 415.7 545.7 404.3 573 400.5C600.3 396.7 627.7 400.3 654.8 402C682 403.7 709 403.3 736.2 405.7C763.3 408 790.7 413 818 414C845.3 415 872.7 412 886.3 410.5L900 409L900 451L886.3 451C872.7 451 845.3 451 818 451C790.7 451 763.3 451 736.2 451C709 451 682 451 654.8 451C627.7 451 600.3 451 573 451C545.7 451 518.3 451 491 451C463.7 451 436.3 451 409 451C381.7 451 354.3 451 327 451C299.7 451 272.3 451 245.2 451C218 451 191 451 163.8 451C136.7 451 109.3 451 82 451C54.7 451 27.3 451 13.7 451L0 451Z" fill="#c62368"></path></svg>